<?xml version="1.0" encoding="utf-8"?>
<!-- Generator: Adobe Illustrator 19.2.1, SVG Export Plug-In . SVG Version: 6.00 Build 0)  -->
<svg version="1.1"
	 id="圖層_1" xmlns:cc="http://creativecommons.org/ns#" xmlns:dc="http://purl.org/dc/elements/1.1/" xmlns:rdf="http://www.w3.org/1999/02/22-rdf-syntax-ns#"
	 xmlns="http://www.w3.org/2000/svg" height="16" width="16" xmlns:xlink="http://www.w3.org/1999/xlink" x="0px" y="0px" viewBox="0 0 16 16"
	 style="enable-background:new 0 0 16 16;" xml:space="preserve">
<style type="text/css">
	.st0{fill:none;stroke:#2D2D2D;stroke-miterlimit:10;}
</style>
<path class="st0" d="M4.4,2.5c-0.1,0-0.3,0.2-0.3,0.3v9.5c0,0.2,0.1,0.3,0.3,0.3h8.1c0.2,0,0.3-0.2,0.3-0.3V4.9V4.8l-2.3-2.3h-0.1
	H4.4C4.5,2.5,4.5,2.5,4.4,2.5L4.4,2.5z"/>
<path d="M2.8,3.3c-0.1,0-0.3,0.2-0.3,0.3v10c0,0.2,0.1,0.3,0.3,0.3h8.6c0.2,0,0.3-0.2,0.3-0.3V5.9V5.8L9.1,3.3H9H2.8
	C2.9,3.3,2.8,3.3,2.8,3.3L2.8,3.3z M4.1,4.7h4.6v0.8H4.1V4.7z M4.1,7.1h3.8v0.7H4.1V7.1z M4.1,9.4h6.1v0.7H4.1V9.4z M4.1,11.7h3.1
	v0.7H4.1V11.7z"/>
</svg>
